<?xml version="1.0" encoding="UTF-8"?><svg id="b" xmlns="http://www.w3.org/2000/svg" viewBox="0 0 96.22 38.51"><polygon points="26.01 26.26 21.34 12.7 15.59 12.7 10.72 26.28 5.52 12.7 0 12.7 8.22 31.88 12.93 31.88 18.44 18.5 23.78 31.88 28.48 31.88 36.94 12.7 31.42 12.7 26.01 26.26" fill="#ddd"/><rect x="40.18" y="12.7" width="5.02" height="19.18" fill="#ddd"/><path d="M65.81,22.52c-.72-.4-1.54-.73-2.45-.98-.91-.26-1.87-.49-2.88-.69-1.18-.21-2.17-.4-2.95-.58-.79-.18-1.38-.42-1.78-.71-.4-.3-.6-.71-.6-1.25,0-.67,.32-1.2,.96-1.58,.64-.39,1.59-.58,2.86-.58s2.24,.21,2.86,.64c.62,.42,1.03,1.11,1.23,2.06h4.44c0-1.29-.32-2.42-.95-3.42-.63-.99-1.58-1.76-2.84-2.32-1.26-.55-2.84-.83-4.75-.83-1.26,0-2.44,.13-3.53,.39-1.09,.26-2.05,.63-2.86,1.12-.81,.49-1.44,1.09-1.89,1.81-.45,.72-.68,1.54-.68,2.47s.22,1.76,.68,2.41c.45,.66,1.06,1.2,1.83,1.62,.77,.42,1.66,.77,2.66,1.02,1,.26,2.05,.48,3.13,.66,1.08,.15,1.97,.32,2.66,.5,.69,.18,1.21,.42,1.54,.71,.33,.3,.5,.71,.5,1.25,0,.44-.1,.83-.31,1.18-.21,.35-.58,.61-1.12,.79-.54,.18-1.3,.27-2.28,.27-1.44,0-2.61-.28-3.49-.83-.89-.55-1.47-1.27-1.76-2.14h-4.63c-.05,.36,0,.82,.15,1.39,.15,.57,.44,1.16,.87,1.79,.42,.63,1.02,1.22,1.79,1.78,.77,.55,1.74,1,2.91,1.35,1.17,.35,2.57,.52,4.19,.52,1.83,0,3.4-.23,4.71-.68,1.31-.45,2.32-1.1,3.03-1.95,.71-.85,1.06-1.89,1.06-3.13,0-1-.21-1.83-.64-2.49s-1-1.18-1.72-1.58Z" fill="#ddd"/><path d="M94.85,17.08c-.91-1.51-2.14-2.68-3.69-3.53-1.54-.85-3.28-1.27-5.21-1.27-1.72,0-3.18,.26-4.38,.77-1.2,.52-2.17,1.23-2.91,2.14-.75,.91-1.29,1.97-1.64,3.18,0,.02-.01,.05-.02,.07v-.65l-.23-5.09h-4.79v25.82h5.02v-12.87s.02,.09,.04,.13c.36,1.18,.91,2.27,1.66,3.26,.75,.99,1.72,1.79,2.91,2.39s2.64,.91,4.34,.91c1.9,0,3.63-.41,5.17-1.24,1.54-.82,2.78-1.99,3.71-3.49,.93-1.51,1.39-3.27,1.39-5.31s-.46-3.72-1.37-5.23Zm-4.59,8.45c-.55,.91-1.34,1.63-2.35,2.14-1.02,.51-2.21,.77-3.57,.77-1.49,0-2.79-.26-3.9-.77-1.11-.51-1.96-1.23-2.55-2.14-.59-.91-.89-1.99-.89-3.22,0-1.31,.32-2.43,.96-3.34,.64-.91,1.52-1.61,2.64-2.1,1.12-.49,2.36-.73,3.72-.73,2.16,0,3.83,.57,5,1.7,1.17,1.13,1.76,2.62,1.76,4.48,0,1.23-.28,2.31-.83,3.22Z" fill="#ddd"/></svg>