<?xml version="1.0" encoding="UTF-8"?><svg id="a" xmlns="http://www.w3.org/2000/svg" viewBox="0 0 90 25.56"><polygon points="24.33 13.08 19.96 .4 14.58 .4 10.03 13.1 5.16 .4 0 .4 7.69 18.34 12.09 18.34 17.24 5.82 22.24 18.34 26.64 18.34 34.55 .4 29.39 .4 24.33 13.08" fill="#ddd"/><rect x="37.58" y=".4" width="4.69" height="17.94" fill="#ddd"/><path d="M61.55,9.59c-.67-.37-1.44-.68-2.29-.92-.85-.24-1.75-.46-2.69-.65-1.11-.19-2.03-.37-2.76-.54-.73-.17-1.29-.39-1.66-.67-.37-.28-.56-.67-.56-1.17,0-.63,.3-1.12,.9-1.48,.6-.36,1.49-.54,2.67-.54s2.09,.2,2.67,.6c.58,.4,.96,1.04,1.16,1.93h4.15c0-1.2-.3-2.27-.88-3.19-.59-.93-1.47-1.65-2.65-2.17-1.18-.52-2.66-.78-4.44-.78-1.18,0-2.28,.12-3.3,.36-1.02,.24-1.91,.59-2.67,1.05-.76,.46-1.35,1.02-1.77,1.7-.42,.67-.63,1.44-.63,2.31s.21,1.64,.63,2.26c.42,.61,.99,1.12,1.71,1.52s1.55,.72,2.49,.96c.94,.24,1.91,.45,2.92,.61,1.01,.14,1.84,.3,2.49,.47,.65,.17,1.13,.39,1.44,.67,.31,.28,.47,.67,.47,1.17,0,.41-.1,.78-.29,1.1-.19,.32-.54,.57-1.05,.74-.51,.17-1.22,.25-2.13,.25-1.35,0-2.44-.26-3.27-.78-.83-.52-1.38-1.19-1.64-2h-4.33c-.05,.34,0,.77,.14,1.3,.14,.53,.42,1.09,.81,1.68,.4,.59,.96,1.14,1.68,1.66,.72,.52,1.63,.94,2.73,1.26,1.09,.32,2.4,.49,3.92,.49,1.71,0,3.18-.21,4.4-.63s2.17-1.03,2.83-1.82c.66-.79,.99-1.77,.99-2.92,0-.94-.2-1.71-.6-2.33s-.93-1.11-1.61-1.48Z" fill="#ddd"/><path d="M88.72,4.49c-.85-1.41-2-2.51-3.45-3.3-1.44-.79-3.07-1.19-4.87-1.19-1.61,0-2.98,.24-4.1,.72-1.12,.48-2.03,1.15-2.73,2-.7,.85-1.21,1.85-1.53,2.98,0,.02-.01,.05-.02,.07v-.61l-.22-4.77h-4.48V25.56h4.69V12.51s.02,.08,.04,.13c.34,1.11,.85,2.12,1.55,3.05,.7,.93,1.61,1.67,2.73,2.24s2.47,.85,4.06,.85c1.78,0,3.39-.39,4.84-1.16,1.44-.77,2.6-1.86,3.47-3.27,.87-1.41,1.3-3.06,1.3-4.96s-.43-3.48-1.28-4.89Zm-4.3,7.91c-.52,.85-1.25,1.52-2.2,2-.95,.48-2.06,.72-3.34,.72-1.4,0-2.61-.24-3.65-.72-1.04-.48-1.83-1.15-2.38-2-.55-.85-.83-1.86-.83-3.01,0-1.23,.3-2.27,.9-3.12,.6-.85,1.43-1.51,2.47-1.97,1.05-.46,2.21-.69,3.48-.69,2.02,0,3.58,.53,4.68,1.59,1.09,1.06,1.64,2.45,1.64,4.19,0,1.16-.26,2.16-.78,3.01Z" fill="#ddd"/></svg>