<?xml version="1.0" encoding="UTF-8"?><svg id="c" xmlns="http://www.w3.org/2000/svg" viewBox="0 0 740.17 745.45"><polygon points="127.83 388.07 54.83 473.94 294.94 562.78 372.23 468.65 127.83 388.07" fill="none" stroke="#ddd" stroke-linecap="round" stroke-linejoin="round" stroke-width="5"/><polyline points="340.49 296.59 127.83 388.07 30.06 391.04 314.76 281.72" fill="none" stroke="#ddd" stroke-linecap="round" stroke-linejoin="round" stroke-width="5"/><polyline points="538.63 297.35 664.19 328.62 620.27 342.49 533.95 317.84" fill="none" stroke="#ddd" stroke-linecap="round" stroke-linejoin="round" stroke-width="5"/><polygon points="372.23 468.65 620.27 342.49 710.1 418.12 467.02 555.19 372.23 468.65" fill="none" stroke="#ddd" stroke-linecap="round" stroke-linejoin="round" stroke-width="5"/><polyline points="119.77 497.96 123.2 632.14 372.23 726.6 623.57 575.66 629.74 463.43" fill="none" stroke="#ddd" stroke-linecap="round" stroke-linejoin="round" stroke-width="5"/><line x1="372.23" y1="468.65" x2="372.23" y2="726.6" fill="none" stroke="#ddd" stroke-linecap="round" stroke-linejoin="round" stroke-width="5"/><polyline points="320.75 451.68 385.44 420.1 439.24 434.57" fill="none" stroke="#ddd" stroke-linecap="round" stroke-linejoin="round" stroke-width="5"/><line x1="385.44" y1="325.66" x2="385.44" y2="420.1" fill="none" stroke="#ddd" stroke-linecap="round" stroke-linejoin="round" stroke-width="5"/><path d="M469.52,372.88c8.65-22.84,14.55-46.71,17.43-70.96,3.21-27,2.33-55.92-11.73-79.19-14.06-23.27-44.63-38.2-69.5-27.22-15.71,6.93-26.57,23.66-26.52,40.83,.05,17.17,11.01,33.83,26.76,40.67,23.04,10.01,51.48-2.09,65.62-22.86s16.17-47.75,12.13-72.54c-6.02-36.87-25.25-72.12-55.41-94.18-21.41-15.66-48.41-23.97-74.74-22.66" fill="none" stroke="#ddd" stroke-dasharray="0 0 5 27" stroke-linecap="round" stroke-linejoin="round" stroke-width="7"/><path d="M325.12,49.32c-1.75-1.79-3.13-3.52-4.28-5.76-1.36-2.64-2.08-6.13-.66-8.9,1.11-2.17,3.47-3.98,6.02-3.44s4.23,2.92,4.87,5.27c1.04,3.77-.34,7.82-1.47,11.4-.58,1.85,2.32,2.64,2.89,.8,1.28-4.06,2.58-8.45,1.54-12.72-.79-3.25-3.05-6.23-6.23-7.41s-6.88,.21-9.01,2.81c-2.52,3.06-2.86,7.17-1.71,10.88s3.32,6.53,5.91,9.19c1.35,1.38,3.47-.74,2.12-2.12h0Z" fill="#ddd"/><path d="M323.75,59.84c-3.05,1.66-5.66,3.99-7.7,6.79s-3.89,6.64-3.57,10.27c.31,3.41,2.7,6.66,6.32,6.89,3.82,.24,6.65-2.94,8.31-6,2.09-3.85,2.98-8.3,2.52-12.65-.09-.81-.63-1.49-1.5-1.5-.74,0-1.59,.7-1.5,1.5,.33,3.08-.03,6.13-1.13,9.03-.91,2.4-2.53,5.51-5.13,6.41s-4.77-1.5-4.91-4.05c-.16-2.86,1.32-5.71,2.9-7.99,1.78-2.56,4.18-4.63,6.91-6.11,1.7-.92,.18-3.51-1.51-2.59h0Z" fill="#ddd"/><path d="M336.56,52.64c-2.29-4.3-7.63-5.92-11.92-3.64-4.3,2.29-5.92,7.63-3.64,11.92,2.29,4.3,7.63,5.92,11.92,3.64,4.3-2.29,5.92-7.63,3.64-11.92Zm-10.96,4.37c-1.46,.1-2.72-.99-2.83-2.45-.1-1.46,.99-2.72,2.45-2.83,1.46-.1,2.72,.99,2.83,2.45,.1,1.46-.99,2.72-2.45,2.83Z" fill="#ddd"/><path d="M328.6,20.35c.45,0,.89,.02,1.33,.06-.14-.01-.15-.02,0,0,.11,.02,.22,.04,.33,.06,.22,.04,.43,.09,.65,.15,.41,.11,.81,.25,1.2,.4-.27-.1,.02,0,.07,.03,.1,.05,.2,.09,.3,.14,.2,.1,.4,.21,.59,.32,.17,.1,.34,.21,.51,.32,.09,.06,.18,.12,.28,.19,.03,.02,.32,.23,.17,.12s.17,.14,.16,.13c.09,.07,.17,.14,.25,.22,.15,.13,.3,.27,.44,.41,.16,.16,.31,.32,.46,.49,.07,.08,.14,.17,.21,.26,.16,.18-.19-.27,.05,.07,.26,.36,.5,.74,.71,1.13,.38,.69,1.39,.97,2.05,.54s.94-1.31,.54-2.05c-2.01-3.68-6.12-6.06-10.31-5.98-.78,.01-1.54,.68-1.5,1.5s.66,1.52,1.5,1.5h0Z" fill="#ddd"/><path d="M323,95.79c2.51,.23,5.16-.43,7.23-1.87s3.47-3.32,4.31-5.61c.28-.76-.31-1.64-1.05-1.85-.84-.23-1.56,.28-1.85,1.05-.01,.03-.14,.38-.1,.26,.04-.09-.07,.15-.08,.18-.1,.21-.21,.42-.32,.63s-.24,.41-.37,.6c-.07,.11-.15,.22-.22,.32-.03,.04-.14,.2-.05,.07-.29,.37-.61,.72-.95,1.04-.41,.39-.54,.5-.98,.79-1.71,1.14-3.55,1.56-5.59,1.37-.81-.07-1.5,.74-1.5,1.5,0,.87,.69,1.43,1.5,1.5h0Z" fill="#ddd"/></svg>